<svg xmlns="http://www.w3.org/2000/svg" viewBox="0 0 48 48" fill="none">
  <style>
    :root {
      color-scheme: light dark;
      --fg: #232532;
      --muted: #73798a;
      --accent: #d96a22;
      --surface: #fffaf0;
    }
    @media (prefers-color-scheme: dark) {
      :root {
        --fg: #f4f0e8;
        --muted: #9ba2b2;
        --accent: #f59a3d;
        --surface: #1d1f2a;
      }
    }
  </style>
  <rect width="48" height="48" rx="12" fill="var(--surface)"/>
  <path d="M8 33.5 19.8 10.9c.9-1.7 3.5-1.5 4.1.4l5 15.4c.4 1.2-.2 2.4-1.3 2.9L11.4 36c-2.2.9-4.4-.5-3.4-2.5Z" fill="var(--fg)"/>
  <path d="M40 33.5 28.2 10.9c-.9-1.7-3.5-1.5-4.1.4l-5 15.4c-.4 1.2.2 2.4 1.3 2.9L36.6 36c2.2.9 4.4-.5 3.4-2.5Z" fill="var(--muted)"/>
  <path d="m20.8 23.4 8.3-8.7-2.4 7.5 6.9.5-8.9 9.4 2.6-8.2-6.5-.5Z" fill="var(--accent)"/>
  <path d="M23.7 5.5v4.1M15.4 10.1l2.8 2.8M32.6 10.1l-2.8 2.8M24 36.9v5.6M34.8 32.8l3.4 3.4" stroke="var(--accent)" stroke-width="2.5" stroke-linecap="round"/>
</svg>
